<svg xmlns="http://www.w3.org/2000/svg" version="1.1" width="898" height="543">
          <path d="M0 0 C296.34 0 592.68 0 898 0 C898 179.19 898 358.38 898 543 C601.66 543 305.32 543 0 543 C0 363.81 0 184.62 0 0 Z " fill="#FEFEFE" transform="translate(0,0)"/>
          <path d="M0 0 C2 2 2 2 2.22705078 4.06298828 C2.21657715 4.89040527 2.20610352 5.71782227 2.1953125 6.5703125 C2.18886719 7.46621094 2.18242187 8.36210938 2.17578125 9.28515625 C2.15064453 10.69087891 2.15064453 10.69087891 2.125 12.125 C2.11597656 13.06988281 2.10695313 14.01476562 2.09765625 14.98828125 C2.07404522 17.32577292 2.04111516 19.66276123 2 22 C2.67936615 21.98889694 3.3587323 21.97779388 4.0586853 21.96635437 C11.16447734 21.85526726 18.27002051 21.78012813 25.37646484 21.7253418 C28.02435332 21.70028241 30.67217322 21.66622565 33.31982422 21.62280273 C37.13786804 21.56177721 40.95499294 21.53370268 44.7734375 21.51171875 C45.94675629 21.48591232 47.12007507 21.4601059 48.32894897 21.43351746 C56.89092415 21.43063147 63.75896597 23.02163167 70.14120483 29.0085907 C77.93751165 37.38047135 79.14615516 45.15302109 79.17700195 56.15527344 C79.18357315 57.17542542 79.19014435 58.19557739 79.19691467 59.24664307 C79.21660058 62.61755451 79.22829933 65.98842152 79.23828125 69.359375 C79.24235678 70.51300789 79.2464323 71.66664078 79.25063133 72.85523224 C79.27147119 78.96045247 79.2857824 85.06565036 79.29516602 91.17089844 C79.30623087 97.46670071 79.34063812 103.76214962 79.38033772 110.057827 C79.40651591 114.90839279 79.41485891 119.75887448 79.41844749 124.6095047 C79.42330964 126.92985676 79.43491295 129.25020515 79.45348549 131.57048798 C79.47790353 134.82299127 79.47690673 138.07458102 79.4699707 141.32714844 C79.48918579 142.7535968 79.48918579 142.7535968 79.50878906 144.2088623 C79.44126712 152.93177634 76.4402302 160.16085346 71 167 C63.95390918 173.6305037 55.51844953 175.25473919 46.0859375 175.08984375 C45.38117279 175.08145981 44.67640808 175.07307587 43.95028687 175.06443787 C41.01554249 175.02217672 38.08528398 174.97114092 35.15332031 174.83227539 C30.20658552 174.61731887 25.79369968 174.65928621 21 176 C17.25841897 179.48710957 15.25571201 183.45679095 13 188 C11.90340919 189.70910524 10.7814434 191.40233053 9.62890625 193.07421875 C8.07267808 195.41542961 6.51659464 197.75672236 4.96289062 200.09960938 C4.46080078 200.85435547 3.95871094 201.60910156 3.44140625 202.38671875 C2.99482666 203.05920654 2.54824707 203.73169434 2.08813477 204.42456055 C1 206 1 206 0 207 C-2.828125 207.3125 -2.828125 207.3125 -6 207 C-7.984375 205.375 -7.984375 205.375 -9.75 203 C-10.41902344 202.10023438 -11.08804688 201.20046875 -11.77734375 200.2734375 C-15.27420309 195.12340564 -18.56673056 189.85716356 -21.80078125 184.5390625 C-23.05952235 182.47109228 -24.3209645 180.57904003 -25.79296875 178.6484375 C-27 177 -27 177 -27 175 C-28.01835937 175.01571045 -29.03671875 175.0314209 -30.0859375 175.04760742 C-33.89526333 175.10226104 -37.70455509 175.13647774 -41.51416016 175.16479492 C-43.15712326 175.17980136 -44.80004686 175.20021312 -46.44287109 175.22631836 C-48.81618042 175.26306359 -51.18895625 175.27980772 -53.5625 175.29296875 C-54.28679199 175.30845261 -55.01108398 175.32393646 -55.75732422 175.33988953 C-64.4362958 175.34269846 -71.74311315 171.9859701 -78 166 C-82.54144812 160.32565268 -85.10303832 155.69150999 -85.15390015 148.37228394 C-85.16250061 147.44726578 -85.17110107 146.52224762 -85.17996216 145.56919861 C-85.18422211 144.56135818 -85.18848206 143.55351776 -85.19287109 142.51513672 C-85.20513733 140.91438545 -85.20513733 140.91438545 -85.21765137 139.28129578 C-85.24247511 135.74743202 -85.25901499 132.21360839 -85.2734375 128.6796875 C-85.27876118 127.47122288 -85.28408485 126.26275826 -85.28956985 125.01767349 C-85.31629005 118.61953618 -85.33566743 112.22141829 -85.35009766 105.82324219 C-85.36342989 100.53498003 -85.39127192 95.24710436 -85.43212891 89.95898438 C-85.48150709 83.56767406 -85.50622543 77.17671401 -85.51332474 70.7852211 C-85.52002751 68.3540375 -85.53522396 65.92286142 -85.55921555 63.49178696 C-85.59094977 60.08119043 -85.59089054 56.67193681 -85.58349609 53.26123047 C-85.59990143 52.26553543 -85.61630676 51.26984039 -85.63320923 50.24397278 C-85.56514354 42.53660491 -83.56467929 35.90203479 -78.27376366 30.11039543 C-70.22734688 22.57563873 -62.62808441 21.42345427 -51.96875 21.609375 C-50.73709106 21.61503479 -49.50543213 21.62069458 -48.2364502 21.62652588 C-44.3238956 21.64881769 -40.41227526 21.69900379 -36.5 21.75 C-33.83855507 21.7723406 -31.17711891 21.78832317 -28.515625 21.8046875 C-22.01010087 21.84865912 -15.50511721 21.91550054 -9 22 C-9.01571045 21.44014404 -9.0314209 20.88028809 -9.04760742 20.3034668 C-9.10999848 17.7649141 -9.14900218 15.22652271 -9.1875 12.6875 C-9.21263672 11.80642578 -9.23777344 10.92535156 -9.26367188 10.01757812 C-9.27333984 9.17001953 -9.28300781 8.32246094 -9.29296875 7.44921875 C-9.3086792 6.66893311 -9.32438965 5.88864746 -9.34057617 5.0847168 C-8.47102947 -0.23790633 -4.72336466 -0.5024856 0 0 Z " fill="#5459C9" transform="translate(499,114)"/>
          <path d="M0 0 C1.16849991 -0.01065994 2.33699982 -0.02131989 3.54090881 -0.03230286 C7.38807631 -0.05793055 11.23295649 -0.03279266 15.08007812 -0.00463867 C17.76235922 -0.00681564 20.44456485 -0.01116004 23.12683105 -0.01774597 C28.74220479 -0.0258878 34.35692595 -0.00532347 39.97216797 0.03222656 C46.44820928 0.07515896 52.9229714 0.07161766 59.39906454 0.04335898 C65.64946622 0.01725244 71.89939617 0.02517869 78.14979553 0.04805946 C80.80029096 0.05456615 83.45082218 0.05247269 86.1013031 0.0415554 C89.80924343 0.03099771 93.51494261 0.05919817 97.22265625 0.09765625 C98.31276505 0.08708191 99.40287384 0.07650757 100.52601624 0.06561279 C106.76616434 0.17823123 110.78546895 1.04219296 115.55015087 5.212924 C119.94305035 9.93164148 120.48363274 14.17357915 120.4519043 20.45581055 C120.4522659 21.19994768 120.45262751 21.94408482 120.45300007 22.71077156 C120.45077437 25.10148869 120.42799185 27.49148973 120.40429688 29.88208008 C120.39988183 31.36523094 120.39682388 32.84838649 120.3951416 34.33154297 C120.37946153 39.80939781 120.33757763 45.28715235 120.29882812 50.76489258 C120.23695313 63.01614258 120.17507813 75.26739258 120.11132812 87.88989258 C73.25132812 87.88989258 26.39132812 87.88989258 -21.88867188 87.88989258 C-21.92992187 75.98926758 -21.97117187 64.08864258 -22.01367188 51.82739258 C-22.03187988 48.08000732 -22.05008789 44.33262207 -22.06884766 40.47167969 C-22.07788086 35.86950684 -22.07788086 35.86950684 -22.07955933 33.7099762 C-22.0826156 32.2127717 -22.08961869 30.71557189 -22.099823 29.21839905 C-22.11456077 26.94076075 -22.1164806 24.66342135 -22.11572266 22.38574219 C-22.12016388 21.10444931 -22.1246051 19.82315643 -22.12918091 18.5030365 C-21.72602439 12.44645518 -20.81796295 8.39298986 -16.50671387 4.00801086 C-11.31907803 -0.15477494 -6.44332671 -0.09303863 0 0 Z " fill="#FDFDFE" transform="translate(446.888671875,146.110107421875)"/>
          <path d="M0 0 C1.11822144 0.00749268 1.11822144 0.00749268 2.2590332 0.01513672 C10.5291997 0.27551543 16.38920481 3.05336079 22.3125 8.8125 C23.09625 9.699375 23.88 10.58625 24.6875 11.5 C25.6775 8.2 26.6675 4.9 27.6875 1.5 C34.2875 1.5 40.8875 1.5 47.6875 1.5 C47.7327813 13.32260017 47.76943374 25.14514222 47.79112434 36.96780968 C47.80153754 42.45822765 47.81565161 47.94858294 47.83837891 53.43896484 C47.8601953 58.74281043 47.87208714 64.04659592 47.87725449 69.35048294 C47.88093449 71.36855642 47.88812043 73.38662681 47.89896011 75.40467453 C47.91359204 78.24299847 47.91547308 81.08107769 47.91455078 83.91943359 C47.92174133 84.74374878 47.92893188 85.56806396 47.93634033 86.4173584 C47.89515385 98.21977583 45.16314219 107.64093163 36.90625 116.38671875 C25.10783223 126.31038793 7.30478843 126.37072032 -7.3125 125.5 C-14.23885307 124.72393007 -21.04608391 123.63320805 -27.3125 120.5 C-27.3125 114.56 -27.3125 108.62 -27.3125 102.5 C-26.1575 102.768125 -25.0025 103.03625 -23.8125 103.3125 C-21.98017207 103.71296161 -20.14665365 104.1079853 -18.3125 104.5 C-17.09046875 104.76425781 -15.8684375 105.02851563 -14.609375 105.30078125 C1.5601727 109.02608234 1.5601727 109.02608234 16.96582031 104.91772461 C20.53349956 101.97990366 22.30959453 97.65277976 23.09790039 93.16210938 C23.29787494 90.76928507 23.39449264 88.40059265 23.4375 86 C23.48197266 84.76636719 23.48197266 84.76636719 23.52734375 83.5078125 C23.59718437 81.50571467 23.64470388 79.50285844 23.6875 77.5 C23.08679688 78.27988281 22.48609375 79.05976563 21.8671875 79.86328125 C17.97632912 84.56996478 13.50141287 86.89946399 7.6875 88.5 C-2.02026869 89.4113024 -11.23773243 89.70894749 -19.3125 83.5 C-27.15996277 76.45609006 -31.63598674 65.65349133 -32.61743164 55.27563477 C-32.75038347 51.74143705 -32.77101664 48.22402672 -32.75 44.6875 C-32.76998047 43.50607422 -32.78996094 42.32464844 -32.81054688 41.10742188 C-32.80341066 28.08382967 -29.87220856 17.1293833 -20.6171875 7.7890625 C-14.40501028 2.07831662 -8.32744745 -0.07343594 0 0 Z " fill="#030303" transform="translate(353.3125,342.5)"/>
          <path d="M0 0 C9.31065429 6.57496955 15.11096167 16.05914733 17.21484375 27.15234375 C18.68260384 43.11033107 17.29358151 58.35674306 7.02734375 71.15234375 C-0.17837763 78.9216411 -10.21169873 82.84265178 -20.640625 83.70703125 C-32.85727314 84.0962342 -44.98769601 80.74322025 -54.28515625 72.52734375 C-63.34977097 62.57185781 -65.65259002 50.73959581 -65.72265625 37.77734375 C-65.74328125 36.83890625 -65.76390625 35.90046875 -65.78515625 34.93359375 C-65.84789047 23.57869906 -62.53481696 13.31755808 -54.87890625 4.7421875 C-40.62209462 -8.40501379 -16.40847982 -9.77250694 0 0 Z " fill="#5156C8" transform="translate(159.47265625,348.47265625)"/>
          <path d="M0 0 C46.86 0 93.72 0 142 0 C142 20 142 20 137 28 C134.9375 29.875 134.9375 29.875 133 31 C132.47897705 31.35118896 131.9579541 31.70237793 131.42114258 32.06420898 C127.77977851 33.47162539 124.16705212 33.1767548 120.32421875 33.09765625 C118.59180054 33.09359131 116.8593761 33.09170681 115.12695312 33.09179688 C112.40711984 33.0837014 109.69018572 33.06255817 106.97094727 33.00366211 C96.704265 32.41017692 96.704265 32.41017692 87.39404297 35.78686523 C85.56454912 38.10443959 84.28500201 40.34688117 83 43 C82.0956056 44.37494002 81.17444542 45.73904514 80.234375 47.08984375 C78.97264819 49.03141404 77.72279888 50.98009562 76.4765625 52.93164062 C74.49317783 55.9784438 73.06420927 57.95719382 70 60 C65.01289785 53.34147124 60.34601341 46.58231637 55.97094727 39.50927734 C54.02415813 36.20529243 54.02415813 36.20529243 51 34 C48.17830849 33.90341032 45.3767369 33.86292033 42.5546875 33.859375 C40.82029949 33.84103571 39.08592415 33.82146437 37.3515625 33.80078125 C34.61957606 33.771905 31.88839855 33.75000241 29.15625 33.74951172 C26.51750073 33.74615575 23.88061117 33.71146965 21.2421875 33.671875 C20.4366745 33.6789447 19.6311615 33.6860144 18.80123901 33.69329834 C12.73832819 33.56467129 8.74633483 31.75654676 4 28 C-3.28741669 20.00734943 0 11.63491834 0 0 Z " fill="#FDFDFE" transform="translate(425,245)"/>
          <path d="M0 0 C10.23332148 -0.39422105 20.52846965 2.19903146 28.18359375 9.21875 C33.47134836 15.64437586 35.31293575 20.44353975 35.29711914 28.73144531 C35.29726517 29.37576508 35.29741119 30.02008484 35.29756165 30.68392944 C35.29686725 32.80494603 35.28909711 34.92587383 35.28125 37.046875 C35.27938414 38.52089388 35.27796103 39.99491338 35.27696228 41.46893311 C35.27315036 45.34213992 35.2633314 49.21530903 35.2522583 53.08850098 C35.24201568 57.04337046 35.23745855 60.99824606 35.23242188 64.953125 C35.22170792 72.70835248 35.20412187 80.46354115 35.18359375 88.21875 C29.90359375 88.21875 24.62359375 88.21875 19.18359375 88.21875 C15.18359375 79.46875 15.18359375 79.46875 15.18359375 77.21875 C14.47074219 77.83363281 13.75789063 78.44851563 13.0234375 79.08203125 C12.06566406 79.89027344 11.10789062 80.69851563 10.12109375 81.53125 C9.18136719 82.33175781 8.24164063 83.13226563 7.2734375 83.95703125 C0.53426494 88.89000333 -5.15623139 89.71955805 -13.25390625 89.65625 C-14.15689453 89.67623047 -15.05988281 89.69621094 -15.99023438 89.71679688 C-23.28759431 89.71151276 -28.49964517 88.07324472 -34.05859375 83.2890625 C-34.59742188 82.64710938 -35.13625 82.00515625 -35.69140625 81.34375 C-36.52285156 80.38855469 -36.52285156 80.38855469 -37.37109375 79.4140625 C-42.21364038 72.0586268 -41.63643824 62.6788183 -40.81640625 54.21875 C-39.48665286 48.45367993 -36.10363726 44.8519445 -31.3046875 41.53515625 C-26.42479695 38.95348731 -21.13967606 37.59181563 -15.81640625 36.21875 C-14.90955078 35.95070557 -14.90955078 35.95070557 -13.984375 35.67724609 C-11.33526288 35.11699468 -8.88352278 35.10669087 -6.17578125 35.12109375 C-5.10585938 35.12431641 -4.0359375 35.12753906 -2.93359375 35.13085938 C-1.82242188 35.13923828 -0.71125 35.14761719 0.43359375 35.15625 C2.12355469 35.16301758 2.12355469 35.16301758 3.84765625 35.16992188 C6.62635592 35.18169603 9.40494784 35.1981416 12.18359375 35.21875 C12.06744851 33.61511744 11.93872089 32.01239286 11.8046875 30.41015625 C11.69918579 29.07126343 11.69918579 29.07126343 11.59155273 27.70532227 C11.03719846 24.32644839 9.65109837 22.53670888 7.18359375 20.21875 C1.44044274 17.34717449 -8.35216297 18.57987211 -14.40234375 20.1484375 C-16.40667104 20.86603616 -18.39683206 21.62571434 -20.36328125 22.44140625 C-22.81640625 23.21875 -22.81640625 23.21875 -24.9375 23.20703125 C-27.90223969 21.64761516 -28.69623365 19.30863572 -30.12890625 16.34375 C-30.66128906 15.27382813 -31.19367188 14.20390625 -31.7421875 13.1015625 C-32.81640625 10.21875 -32.81640625 10.21875 -31.81640625 7.21875 C-21.87430289 1.7171263 -11.08321118 0.86083194 0 0 Z " fill="#020202" transform="translate(460.81640625,341.78125)"/>
          <path d="M0 0 C7.88000729 5.49133951 11.57182557 12.5670392 14.55859375 21.52734375 C14.55859375 29.11734375 14.55859375 36.70734375 14.55859375 44.52734375 C-3.59140625 44.52734375 -21.74140625 44.52734375 -40.44140625 44.52734375 C-37.7984991 56.23653909 -37.7984991 56.23653909 -30.44140625 62.52734375 C-20.54334429 67.40667007 -7.49837865 64.6460066 2.55859375 61.52734375 C6.02359375 60.53734375 6.02359375 60.53734375 9.55859375 59.52734375 C9.55859375 65.46734375 9.55859375 71.40734375 9.55859375 77.52734375 C-0.48911292 81.28010166 -8.35501364 82.74968051 -19.06640625 82.83984375 C-20.19175781 82.86884766 -21.31710937 82.89785156 -22.4765625 82.92773438 C-34.73878186 83.01987822 -45.51261718 79.30247016 -54.37890625 70.6328125 C-64.53062082 58.84019579 -65.51141763 45.32858319 -64.44140625 30.52734375 C-63.53068499 19.72478855 -58.64070984 9.5815086 -50.66015625 2.21484375 C-36.57626231 -8.49685023 -14.98153176 -9.03685996 0 0 Z " fill="#030303" transform="translate(675.44140625,348.47265625)"/>
          <path d="M0 0 C8.25 0 16.5 0 25 0 C29.18097821 9.56212466 32.55918582 19.27757544 35.8215332 29.18334961 C36.69204494 31.82629884 37.56908341 34.46701253 38.44726562 37.10742188 C39.01079292 38.80716697 39.57395692 40.50703256 40.13671875 42.20703125 C40.52424568 43.37598686 40.52424568 43.37598686 40.91960144 44.56855774 C42.38434673 49.02047289 43.74350615 53.48476713 45 58 C45.20536377 57.17097168 45.41072754 56.34194336 45.62231445 55.48779297 C48.35711094 44.82330917 51.7197139 34.41170484 55.22827148 23.97900391 C56.2016265 21.08296925 57.16668086 18.18425745 58.13085938 15.28515625 C58.74691685 13.44254812 59.36343549 11.6000941 59.98046875 9.7578125 C60.26899216 8.89133087 60.55751556 8.02484924 60.8547821 7.1321106 C62.88441663 1.11558337 62.88441663 1.11558337 64 0 C65.85369611 -0.08737645 67.71067541 -0.10698153 69.56640625 -0.09765625 C70.69111328 -0.09443359 71.81582031 -0.09121094 72.97460938 -0.08789062 C74.15861328 -0.07951172 75.34261719 -0.07113281 76.5625 -0.0625 C77.75037109 -0.05798828 78.93824219 -0.05347656 80.16210938 -0.04882812 C83.10812226 -0.03699675 86.05403681 -0.02051287 89 0 C83.10904339 17.29777998 76.68723726 34.39563439 70.26586914 51.50146484 C68.73718752 55.57406562 67.21353597 59.64852801 65.69119167 63.72350121 C64.49834061 66.91434255 63.30239622 70.10401809 62.10560799 73.29338455 C61.54293193 74.79419117 60.98126104 76.29537511 60.42071342 77.796978 C46.87543151 114.06228424 46.87543151 114.06228424 33 121 C24.10408378 124.58006384 14.31016425 125.32754106 5 123 C5 116.73 5 110.46 5 104 C6.98 104.0825 8.96 104.165 11 104.25 C16.89752312 104.23716535 21.32086378 103.74330897 26 100 C30.50184942 94.55039281 32.49006297 89.04270844 32 82 C31.10914091 79.25361712 30.16232147 76.66555218 29.0625 74.00683594 C28.75038574 73.22888672 28.43827148 72.4509375 28.11669922 71.64941406 C27.08737196 69.09042018 26.0436736 66.53754726 25 63.984375 C24.28154946 62.2045263 23.56411582 60.4242668 22.84765625 58.64361572 C20.9626626 53.96532058 19.06589506 49.29189544 17.16601562 44.61962891 C14.12200431 37.12814879 11.09558329 29.62954991 8.06982422 22.1306839 C7.00991895 19.50891044 5.94480806 16.88929884 4.87890625 14.2699585 C4.23165943 12.67187943 3.58451818 11.07375759 2.9375 9.47558594 C2.63827637 8.74414368 2.33905273 8.01270142 2.03076172 7.25909424 C0 2.22685212 0 2.22685212 0 0 Z " fill="#030303" transform="translate(769,344)"/>
          <path d="M0 0 C1.05574219 -0.020625 2.11148438 -0.04125 3.19921875 -0.0625 C9.82365111 -0.09533486 15.25606623 0.6668398 21.375 3.25 C20.64520384 5.90298851 19.89268913 8.54548214 19.125 11.1875 C18.92003906 11.94224609 18.71507812 12.69699219 18.50390625 13.47460938 C17.859375 15.65234375 17.859375 15.65234375 16.375 19.25 C13.29300197 20.42387642 11.49177288 20.12954386 8.375 19.25 C3.91334281 18.81384441 -0.13540786 18.48703817 -4.1875 20.5625 C-6.53366679 24.94881183 -6.38992671 29.313461 -6.625 34.25 C-0.025 34.25 6.575 34.25 13.375 34.25 C13.375 40.19 13.375 46.13 13.375 52.25 C6.445 52.25 -0.485 52.25 -7.625 52.25 C-7.625 74.69 -7.625 97.13 -7.625 120.25 C-15.215 120.25 -22.805 120.25 -30.625 120.25 C-30.625 97.81 -30.625 75.37 -30.625 52.25 C-34.915 52.25 -39.205 52.25 -43.625 52.25 C-43.625 48.29 -43.625 44.33 -43.625 40.25 C-42.77035156 39.97929687 -41.91570312 39.70859375 -41.03515625 39.4296875 C-37.42026019 38.02084819 -34.63583828 36.713021 -31.625 34.25 C-30.58442422 30.60798476 -30.56166025 27.50994786 -30.60546875 23.73046875 C-30.64021093 17.53941248 -28.80929536 13.04336155 -25.4375 7.9375 C-17.93566023 0.76907533 -9.95536363 0.04757641 0 0 Z " fill="#5156C8" transform="translate(230.625,309.75)"/>
          <path d="M0 0 C1.0546875 1.71875 1.0546875 1.71875 1 4 C0.11264513 6.52225628 -0.81729003 8.83799429 -1.9375 11.25 C-2.22818359 11.8996875 -2.51886719 12.549375 -2.81835938 13.21875 C-3.53528975 14.81715215 -4.26628949 16.40923054 -5 18 C-5.64066406 17.80664062 -6.28132813 17.61328125 -6.94140625 17.4140625 C-8.74576978 16.8708711 -10.55187378 16.33343873 -12.359375 15.80078125 C-14.36146704 15.19363795 -16.34309839 14.5185119 -18.3125 13.8125 C-23.8181552 12.59938953 -29.38673221 12.4841862 -35 13 C-38.21277591 14.63634663 -38.21277591 14.63634663 -38.5 17.375 C-37.7949945 21.07627888 -36.02558072 21.85141444 -33 24 C-31.21249206 24.91463492 -29.39035764 25.76408184 -27.54296875 26.55078125 C-26.51236328 27.00259766 -25.48175781 27.45441406 -24.41992188 27.91992188 C-22.27910906 28.84221767 -20.1358969 29.75896558 -17.99023438 30.66992188 C-10.19338485 34.10442195 -3.87409048 37.75431387 0.97265625 44.9140625 C2.2760321 48.82914585 2.49555853 52.27234859 2.4375 56.375 C2.42847656 57.13014893 2.41945313 57.88529785 2.41015625 58.66333008 C2.20113837 65.36569154 1.20051964 69.98692945 -3.80078125 74.6953125 C-13.59847989 82.57152073 -23.37569502 83.21743912 -35.5625 83.3125 C-37.38104492 83.35600586 -37.38104492 83.35600586 -39.23632812 83.40039062 C-47.66675261 83.45915498 -54.13684242 82.05488191 -62 79 C-62 72.73 -62 66.46 -62 60 C-58.03327984 60.79334403 -54.56502869 61.80137085 -50.75 63.0625 C-41.90126585 65.64416028 -30.94557975 66.85053448 -22 64 C-21.3641317 60.8206585 -21.1992496 58.16140419 -22 55 C-27.16470442 49.76255326 -35.53014721 47.44635659 -42.22753906 44.609375 C-50.31164821 41.12105296 -56.19218737 36.80899883 -61.0703125 29.3671875 C-63.52367963 23.12037875 -63.38888181 13.55390345 -60.9375 7.28125 C-48.95015786 -9.65738563 -16.49939474 -9.93624406 0 0 Z " fill="#5156C8" transform="translate(78,348)"/>
          <path d="M0 0 C1.39456867 0.00574201 2.78910972 0.01875397 4.18359375 0.03515625 C6.63796875 0.05578125 9.09234375 0.07640625 11.62109375 0.09765625 C11.62109375 6.03765625 11.62109375 11.97765625 11.62109375 18.09765625 C19.54109375 18.09765625 27.46109375 18.09765625 35.62109375 18.09765625 C35.62109375 23.70765625 35.62109375 29.31765625 35.62109375 35.09765625 C27.70109375 35.09765625 19.78109375 35.09765625 11.62109375 35.09765625 C11.71801841 41.43346791 11.82074368 47.76862379 11.93847656 54.10400391 C11.97675977 56.25921878 12.01161379 58.41449741 12.04296875 60.56982422 C12.08863325 63.66787501 12.14662587 66.76548716 12.20703125 69.86328125 C12.21858246 70.82695618 12.23013367 71.7906311 12.24203491 72.7835083 C12.2619046 73.68414001 12.28177429 74.58477173 12.30224609 75.51269531 C12.31556976 76.30323303 12.32889343 77.09377075 12.34262085 77.90826416 C12.65558806 80.36885524 13.32978696 81.98871229 14.62109375 84.09765625 C20.80121926 88.20478369 29.69497267 85.97716369 36.62109375 85.09765625 C36.62109375 90.70765625 36.62109375 96.31765625 36.62109375 102.09765625 C22.66033772 106.37895477 10.83027556 108.29856019 -2.69140625 101.41015625 C-8.01315994 96.83097284 -10.5152634 92.02765543 -11.37890625 85.09765625 C-11.51160782 81.32885593 -11.49526052 77.56369447 -11.4765625 73.79296875 C-11.47514755 72.71385223 -11.4737326 71.63473572 -11.47227478 70.5229187 C-11.46669469 67.08946923 -11.4541458 63.65608589 -11.44140625 60.22265625 C-11.43638868 57.88932386 -11.43182622 55.55599045 -11.42773438 53.22265625 C-11.41673177 47.51429758 -11.39948081 41.80598812 -11.37890625 36.09765625 C-15.00890625 36.09765625 -18.63890625 36.09765625 -22.37890625 36.09765625 C-23.43337248 28.98000919 -23.43337248 28.98000919 -22.37890625 25.09765625 C-19.91796875 23.40625 -19.91796875 23.40625 -16.75390625 21.97265625 C-11.29839803 19.37050121 -9.43043086 17.09783983 -7.43798828 11.59814453 C-6.34377639 8.11656123 -5.35248941 4.61486972 -4.37890625 1.09765625 C-3.37890625 0.09765625 -3.37890625 0.09765625 0 0 Z " fill="#5055C8" transform="translate(271.37890625,325.90234375)"/>
          <path d="M0 0 C7.92 0 15.84 0 24 0 C24 39.6 24 79.2 24 120 C16.08 120 8.16 120 0 120 C0 80.4 0 40.8 0 0 Z " fill="#060606" transform="translate(568,310)"/>
          <path d="M0 0 C7.92 0 15.84 0 24 0 C24 39.6 24 79.2 24 120 C16.08 120 8.16 120 0 120 C0 80.4 0 40.8 0 0 Z " fill="#060606" transform="translate(520,310)"/>
          <path d="M0 0 C0.73605469 0.01353516 1.47210937 0.02707031 2.23046875 0.04101562 C4.02896743 0.07605131 5.82708422 0.12984712 7.625 0.1875 C7.73959026 7.59767023 7.53660286 14.82956267 6.625 22.1875 C5.92375 22.16429687 5.2225 22.14109375 4.5 22.1171875 C-4.50406314 21.94591456 -11.88429211 22.85757323 -19.375 28.1875 C-23.96686189 34.31878514 -23.97601406 39.7516432 -23.984375 47.24609375 C-24.00091125 48.39038345 -24.01744751 49.53467316 -24.03448486 50.71363831 C-24.08287886 54.35081395 -24.10431776 57.9875717 -24.125 61.625 C-24.15316671 64.09832822 -24.18309511 66.57163704 -24.21484375 69.04492188 C-24.29193642 75.0926386 -24.33253981 81.13904525 -24.375 87.1875 C-32.295 87.1875 -40.215 87.1875 -48.375 87.1875 C-48.375 58.8075 -48.375 30.4275 -48.375 1.1875 C-42.435 1.1875 -36.495 1.1875 -30.375 1.1875 C-26.94642857 10.75892857 -26.94642857 10.75892857 -27.375 15.1875 C-26.715 14.506875 -26.055 13.82625 -25.375 13.125 C-23.11499992 10.87780445 -20.8017505 8.69985506 -18.4375 6.5625 C-17.80972656 5.99273437 -17.18195312 5.42296875 -16.53515625 4.8359375 C-11.01906856 0.62655413 -6.71512731 -0.2367902 0 0 Z " fill="#050505" transform="translate(757.375,342.8125)"/>
          <path d="M0 0 C4.8292176 3.41508416 7.01988327 7.21139837 8.4375 13 C9.98993708 37.45088394 9.98993708 37.45088394 2.6875 45.9375 C-1.95962268 49.400062 -5.37940472 50.5589787 -11.17578125 50.25390625 C-15.98403372 49.54189811 -18.67739508 47.57260492 -22.0625 44.1875 C-26.58575103 37.65391518 -26.65240002 31.21036597 -26.625 23.5 C-26.64111328 22.59701172 -26.65722656 21.69402344 -26.67382812 20.76367188 C-26.67906733 13.52832708 -25.67959855 7.80293509 -20.9375 2.0625 C-14.68584427 -2.99836416 -7.12360756 -4.04025504 0 0 Z " fill="#FCFCFE" transform="translate(144.3125,363.0625)"/>
          <path d="M0 0 C5.49600799 2.41052982 7.48170918 5.77687829 10 11 C11.33065964 15.37091932 11.18398966 19.65565176 11.1875 24.1875 C11.19974609 25.00025391 11.21199219 25.81300781 11.22460938 26.65039062 C11.24095465 33.49906205 11.02139281 40.82724453 6.6875 46.4375 C1.81842183 51.08010942 -2.83677859 51.4428467 -9.33984375 51.3203125 C-14.01132902 50.75781354 -16.63783748 48.45945984 -19.75 45.125 C-23.59082421 38.59559884 -23.36641913 31.98738496 -23.375 24.625 C-23.39949219 23.52671875 -23.42398437 22.4284375 -23.44921875 21.296875 C-23.47851121 13.15357162 -22.43811895 7.52627585 -16.5625 1.5 C-11.07502648 -0.81051517 -5.86364544 -0.72455237 0 0 Z " fill="#FBFBFB" transform="translate(368,362)"/>
          <path d="M0 0 C1.15242188 0.00902344 2.30484375 0.01804687 3.4921875 0.02734375 C4.36101562 0.03894531 5.22984375 0.05054688 6.125 0.0625 C6.69806459 13.17931173 6.69806459 13.17931173 3.125 18.0625 C-1.47759098 22.66509098 -5.27873228 24.22770828 -11.75 24.4375 C-15.80560775 24.37858076 -17.55287664 24.2483404 -21.125 22.1875 C-23.60486734 17.75916546 -23.74984933 14.02543033 -22.875 9.0625 C-20.45229895 4.68300194 -17.46844455 2.89987782 -12.875 1.0625 C-8.53275199 0.16093156 -4.42876242 -0.04519145 0 0 Z " fill="#F8F8F8" transform="translate(466.875,389.9375)"/>
          <path d="M0 0 C3.5 0.25 3.5 0.25 5.5 2.25 C5.76069641 4.33055115 5.76069641 4.33055115 5.7746582 6.92749023 C5.78419022 7.89867294 5.79372223 8.86985565 5.80354309 9.87046814 C5.80263168 10.92254959 5.80172028 11.97463104 5.80078125 13.05859375 C5.80506638 14.13625504 5.8093515 15.21391632 5.81376648 16.32423401 C5.81951726 18.60652971 5.82000457 20.88884374 5.81567383 23.17114258 C5.81251602 26.66975081 5.83595702 30.16751217 5.86132812 33.66601562 C5.86360119 35.88020726 5.86430458 38.09440118 5.86328125 40.30859375 C5.872491 41.35865097 5.88170074 42.40870819 5.89118958 43.49058533 C5.88496078 44.4649202 5.87873199 45.43925507 5.87231445 46.44311523 C5.87294388 47.30090073 5.8735733 48.15868622 5.8742218 49.04246521 C5.5 51.25 5.5 51.25 4.20329285 53.0660553 C2.5 54.25 2.5 54.25 -1.125 54 C-4.5 53.25 -4.5 53.25 -5.5 52.25 C-5.60367027 50.69549012 -5.63851522 49.13631745 -5.64526367 47.57836914 C-5.65164352 46.58386246 -5.65802338 45.58935577 -5.66459656 44.56471252 C-5.66570938 43.48245895 -5.6668222 42.40020538 -5.66796875 41.28515625 C-5.67129715 40.1815123 -5.67462555 39.07786835 -5.67805481 37.94078064 C-5.68312886 35.60123106 -5.68546299 33.26167422 -5.68530273 30.92211914 C-5.68748848 27.33142234 -5.70563734 23.74103296 -5.72460938 20.15039062 C-5.72754327 17.88281356 -5.72952809 15.61523502 -5.73046875 13.34765625 C-5.73765427 12.26742691 -5.74483978 11.18719757 -5.75224304 10.07423401 C-5.74916641 9.07657516 -5.74608978 8.07891632 -5.74291992 7.05102539 C-5.74434494 6.17023819 -5.74576996 5.28945099 -5.74723816 4.38197327 C-5.2921907 0.45802799 -3.7337062 0.2666933 0 0 Z " fill="#585DCB" transform="translate(386.5,168.75)"/>
          <path d="M0 0 C3.5625 0.125 3.5625 0.125 5.5625 1.125 C5.63837458 8.35149432 5.69102551 15.57788649 5.72729492 22.8046875 C5.74240988 25.26468748 5.76290227 27.72466041 5.78881836 30.18457031 C5.8250823 33.71426052 5.84219914 37.24359544 5.85546875 40.7734375 C5.87095261 41.87867767 5.88643646 42.98391785 5.90238953 44.12265015 C5.90272942 45.65401108 5.90272942 45.65401108 5.90307617 47.21630859 C5.90973801 48.11787689 5.91639984 49.01944519 5.92326355 49.94833374 C5.80421158 50.66663361 5.68515961 51.38493347 5.5625 52.125 C2.33876323 54.27415785 1.29546326 54.50786803 -2.4375 54.125 C-4.4375 52.125 -4.4375 52.125 -4.68473816 49.95506287 C-4.68331314 49.05651077 -4.68188812 48.15795868 -4.68041992 47.23217773 C-4.68349655 46.21449814 -4.68657318 45.19681854 -4.68974304 44.14830017 C-4.68255753 43.04619705 -4.67537201 41.94409393 -4.66796875 40.80859375 C-4.66751053 39.68179703 -4.66705231 38.55500031 -4.6665802 37.39405823 C-4.66355536 35.00919544 -4.65566221 32.62433467 -4.64331055 30.23950195 C-4.62505882 26.57431091 -4.62280077 22.90937235 -4.62304688 19.24414062 C-4.61813173 16.93228947 -4.61230342 14.62044003 -4.60546875 12.30859375 C-4.60435593 11.2044664 -4.6032431 10.10033905 -4.60209656 8.9627533 C-4.59571671 7.94822586 -4.58933685 6.93369843 -4.58276367 5.88842773 C-4.57704597 4.54179298 -4.57704597 4.54179298 -4.57121277 3.16795349 C-4.34131202 -0.3446246 -3.64732371 0.13262995 0 0 Z " fill="#5055C8" transform="translate(604.4375,168.875)"/>
          <path d="M0 0 C3.83084349 2.61193874 6.65161815 5.67823629 8.75 9.875 C8.75 12.185 8.75 14.495 8.75 16.875 C-1.81 16.875 -12.37 16.875 -23.25 16.875 C-23.25 7.65606509 -23.25 7.65606509 -19.25 2.875 C-13.57752373 -2.12148168 -6.94149011 -2.4028235 0 0 Z " fill="#FAFAFA" transform="translate(659.25,360.125)"/>
          <path d="M0 0 C3.70390021 2.02666238 5.65363011 3.48044516 8 7 C8.69094876 11.49116693 8.24319396 14.29125813 5.625 17.9375 C2.89924613 20.80569231 0.8748465 21.54401027 -3.0625 21.75 C-6.89736741 21.48433147 -7.89951084 21.07793037 -11.0625 18.625 C-14.0995729 14.51025607 -14.43675031 12.1536537 -14 7 C-10.24882221 1.17920688 -6.92075169 -0.70380526 0 0 Z " fill="#565BCA" transform="translate(466,185)"/>
          <path d="M0 0 C2.76951799 1.52439856 4.45815408 3.2426843 6 6 C7.0676116 10.68106626 6.66981262 13.92829981 4.125 18 C0.39694671 21.50875604 -2.63012903 21.33193611 -7.58203125 21.2890625 C-10 21 -10 21 -12.5625 19.1875 C-15.20893393 15.16031793 -15.4812172 11.73196914 -15 7 C-11.39074863 0.95315722 -6.99949569 -1.32212696 0 0 Z " fill="#5459C9" transform="translate(533,185)"/>
          </svg>